<?xml version="1.0" encoding="utf-8"?>
<!-- Generator: Adobe Illustrator 22.0.1, SVG Export Plug-In . SVG Version: 6.00 Build 0)  -->
<svg version="1.1" id="Layer_1" xmlns="http://www.w3.org/2000/svg" xmlns:xlink="http://www.w3.org/1999/xlink" x="0px" y="0px"
	 viewBox="0 0 841.9 595.3" style="enable-background:new 0 0 841.9 595.3;" xml:space="preserve">
<style type="text/css">
	.st0{fill:#283E91;}
	.st1{fill:#E9252D;}
	.st2{fill:#3DB44B;}
	.st3{fill:#F15A2C;}
	.st4{fill:#726757;}
	.st5{fill:#F89524;}
	.st6{fill:#9F2265;}
	.st7{fill:#00693B;}
</style>
<g>
	<path d="M215.9,317.1c-1-3.2-1.9-6.3-2.5-9.3c-0.7-3-1.1-6.1-1.3-9.1c-3.9,5.9-9,10.9-15.4,14.9c-6.4,4-13.5,6-21.3,6
		c-13.2,0-23.3-3.4-30.3-10.2c-7.1-6.8-10.6-16.1-10.6-27.9c0-12.2,4.8-21.8,14.5-28.6c9.7-6.8,23.3-10.2,40.8-10.2h22.1v-11.1
		c0-6.6-1.9-11.8-5.8-15.5c-3.9-3.7-9.5-5.6-16.7-5.6c-6.5,0-11.6,1.6-15.4,4.7c-3.8,3.1-5.7,7.1-5.7,12h-27.3l-0.1-0.7
		c-0.5-10,3.9-18.8,13.4-26.5c9.5-7.7,21.8-11.6,37-11.6c14.7,0,26.6,3.7,35.6,11.2c9,7.5,13.6,18.2,13.6,32.3V288
		c0,5.2,0.4,10.2,1.1,15c0.7,4.8,1.8,9.5,3.4,14.1H215.9z M181.1,296.7c7.2,0,13.6-1.8,19.3-5.4c5.7-3.6,9.5-7.7,11.4-12.3v-18.7
		h-22.6c-8.3,0-14.7,2-19.4,6.1s-7,8.9-7,14.4c0,4.8,1.6,8.7,4.7,11.5C170.8,295.3,175.3,296.7,181.1,296.7z"/>
	<path d="M328,216.2l-12.2-0.5c-5.5,0-10.1,1.2-13.8,3.5c-3.7,2.3-6.6,5.6-8.6,9.9v87.9h-28.4V190.6H291l1.9,18.3
		c3.2-6.5,7.3-11.5,12.3-15.2c5-3.7,10.8-5.5,17.4-5.5c1.7,0,3.3,0.1,4.8,0.4c1.5,0.3,2.8,0.6,4.1,1L328,216.2z"/>
	<path d="M390.6,159.9v30.7h22.7v21h-22.7v69.9c0,5.2,1.1,8.9,3.4,11.2c2.3,2.2,5.3,3.3,9,3.3c1.6,0,3.1-0.1,4.6-0.4
		c1.5-0.3,2.9-0.6,4.2-1.1l3,20.8c-2.4,1.3-5.3,2.4-8.6,3.1c-3.4,0.7-6.8,1.1-10.4,1.1c-10.4,0-18.6-3.1-24.5-9.2
		c-5.9-6.1-8.9-15.7-8.9-28.8v-69.9h-19.3v-21h19.3v-30.7H390.6z"/>
	<path d="M457.7,317.1h-13.9V134.8h13.9V317.1z"/>
	<path d="M576.5,317.1c-0.9-4.3-1.6-8-2-11.1c-0.4-3.1-0.6-6.3-0.6-9.5c-4.7,6.6-10.9,12.1-18.7,16.5c-7.8,4.4-16.6,6.5-26.3,6.5
		c-12.3,0-21.9-3.3-28.7-9.8c-6.8-6.5-10.2-15.3-10.2-26.3c0-11.7,5-21,15.1-28c10.1-7,23.7-10.5,40.8-10.5h27.9v-15.7
		c0-9-2.9-16.1-8.7-21.3c-5.8-5.1-13.9-7.7-24.4-7.7c-9.7,0-17.8,2.5-24.2,7.4c-6.4,4.9-9.6,10.9-9.6,18l-12.9-0.1l-0.2-0.7
		c-0.5-9.4,3.8-17.9,12.9-25.3c9.1-7.4,20.6-11.2,34.6-11.2c13.9,0,25.2,3.5,33.7,10.6c8.5,7.1,12.7,17.3,12.7,30.5v62.2
		c0,4.4,0.3,8.8,0.8,13c0.5,4.2,1.3,8.4,2.5,12.5H576.5z M530.5,307.1c10,0,18.9-2.4,26.6-7.1c7.7-4.7,13.3-10.7,16.7-18.1v-26.4
		h-28.2c-12.7,0-22.8,2.7-30.4,8.1c-7.6,5.4-11.4,12.1-11.4,20.2c0,6.9,2.4,12.4,7.1,16.8C515.7,305,522.2,307.1,530.5,307.1z"/>
	<path d="M700.8,284.9c0-5.9-2.4-11.1-7.3-15.5c-4.9-4.4-13.7-8-26.4-10.8c-15.1-3.3-26.3-7.6-33.5-13c-7.2-5.4-10.8-13-10.8-22.8
		c0-9.7,4.1-17.8,12.2-24.5c8.1-6.7,18.9-10,32.3-10c14.3,0,25.6,3.5,33.9,10.6c8.3,7.1,12.3,15.9,11.9,26.5l-0.2,0.7h-13
		c0-6.9-2.9-13-8.8-18.1c-5.9-5.1-13.8-7.7-23.8-7.7c-10.2,0-17.9,2.2-23,6.6c-5.1,4.4-7.7,9.5-7.7,15.4c0,5.8,2.2,10.6,6.6,14.4
		c4.4,3.8,13.2,7.1,26.4,10c15,3.4,26.3,8,33.8,13.8c7.5,5.8,11.2,13.7,11.2,23.7c0,10.6-4.3,19.1-12.8,25.6
		c-8.5,6.5-19.8,9.8-33.8,9.8c-15.3,0-27.4-3.7-36.2-11c-8.8-7.3-12.9-16-12.4-26.2l0.2-0.7h12.9c0.5,9.1,4.3,15.7,11.2,19.8
		c6.9,4.1,15,6.2,24.4,6.2c10.1,0,18.1-2.2,24-6.6S700.8,291.2,700.8,284.9z"/>
</g>
<g>
	<path class="st0" d="M265.9,435.5v-62.9h20.9c7,0,12.4,1.4,16.3,4.3c3.9,2.9,5.9,7.2,5.9,12.9c0,2.9-0.8,5.4-2.5,7.6
		c-1.6,2.2-3.9,3.9-6.8,5c3.7,0.8,6.6,2.6,8.6,5.4c2,2.8,3,6,3,9.6c0,5.9-1.9,10.4-5.8,13.5c-3.9,3.1-9.2,4.6-16,4.6H265.9z
		 M276.4,399H288c3.3,0,5.8-0.8,7.7-2.3c1.9-1.5,2.8-3.7,2.8-6.5c0-3.1-1-5.4-3-6.9c-2-1.5-4.9-2.3-8.7-2.3h-10.4V399z M276.4,406.9
		V427h13.2c3.6,0,6.4-0.8,8.4-2.5c2-1.7,2.9-4,2.9-7.2c0-3.3-0.8-5.9-2.5-7.8c-1.6-1.8-4.2-2.8-7.7-2.8H276.4z"/>
	<path class="st1" d="M371.2,372.6v42.2c0,7-2.3,12.3-6.8,16c-4.6,3.7-10.5,5.6-17.8,5.6c-7.2,0-13-1.9-17.5-5.6
		c-4.5-3.7-6.7-9.1-6.7-16v-42.2h10.5v42.1c0,4.4,1.2,7.7,3.7,9.9c2.5,2.2,5.8,3.3,10,3.3c4.3,0,7.8-1.1,10.3-3.3
		c2.6-2.2,3.8-5.5,3.8-9.9v-42.1H371.2z"/>
	<path class="st2" d="M384.7,435.5v-62.9h20.4c8,0,14.5,2.5,19.5,7.5c5,5,7.5,11.4,7.5,19.2v9.5c0,7.9-2.5,14.3-7.5,19.2
		c-5,5-11.5,7.4-19.5,7.4H384.7z M395.2,381V427h9.6c5.2,0,9.3-1.7,12.3-5.1c3-3.4,4.5-7.8,4.5-13.2v-9.6c0-5.3-1.5-9.7-4.5-13.1
		c-3-3.4-7.1-5.1-12.3-5.1H395.2z"/>
	<path class="st3" d="M476.8,420.8h-24.6l-5,14.7h-10.6l23.1-62.9h9.9l22.9,62.9h-10.7L476.8,420.8z M455.2,412h18.6l-9.1-26.9h-0.3
		L455.2,412z"/>
	<path class="st4" d="M511.2,411.6v23.8h-10.5v-62.9h24.6c6.9,0,12.4,1.8,16.3,5.4c3.9,3.6,5.9,8.3,5.9,14.1c0,5.9-2,10.6-5.9,14.2
		c-3.9,3.6-9.4,5.3-16.3,5.3H511.2z M511.2,403.2h14.1c3.9,0,6.8-1,8.8-3.1c2-2.1,2.9-4.7,2.9-7.9c0-3.2-1-5.9-2.9-8
		c-2-2.1-4.9-3.2-8.8-3.2h-14.1V403.2z"/>
	<path class="st5" d="M596.7,407.2h-27.5V427h31.9v8.4h-42.4v-62.9h42.1v8.4h-31.6v17.8h27.5V407.2z"/>
	<path class="st6" d="M644.9,419.2c0-2.6-1-4.7-2.9-6.4c-1.9-1.7-5.4-3.2-10.3-4.5c-7-1.8-12.4-4.3-16.2-7.3c-3.8-3-5.7-7-5.7-11.9
		c0-5.1,2.1-9.2,6.3-12.5c4.2-3.3,9.6-4.9,16.2-4.9c6.9,0,12.5,1.9,16.7,5.6c4.2,3.7,6.2,8.2,6.1,13.4l-0.1,0.3h-10.1
		c0-3.2-1.1-5.8-3.3-7.8c-2.2-2-5.3-3-9.4-3c-3.8,0-6.8,0.8-8.8,2.5c-2.1,1.7-3.1,3.8-3.1,6.5c0,2.4,1.1,4.4,3.3,5.9
		c2.2,1.6,5.9,3.1,11.1,4.5c6.8,1.8,11.9,4.3,15.4,7.5c3.5,3.2,5.3,7.3,5.3,12.2c0,5.2-2.1,9.4-6.3,12.5c-4.2,3.1-9.7,4.6-16.5,4.6
		c-6.6,0-12.3-1.7-17.3-5.2c-5-3.5-7.4-8.3-7.2-14.3l0.1-0.3h10.1c0,3.8,1.3,6.7,4,8.6c2.6,1.9,6.1,2.8,10.3,2.8
		c3.9,0,6.9-0.8,9.1-2.3C643.9,424,644.9,421.9,644.9,419.2z"/>
	<path class="st7" d="M710.4,381h-19v54.5h-10.5V381h-19v-8.4h48.5V381z"/>
</g>
<path d="M238.7,395V385h-19.9l-6.9-29.4l-19.3,4.5l5.8,24.9h-23.3l-6.9-29.4l-19.3,4.5l5.8,24.9h-11.3v9.9H157l3.5,15h-17.1v9.9
	h19.5l7.7,33.1l19.3-4.5l-6.7-28.6h23.3l7.7,33.1l19.3-4.5l-6.7-28.6h11.8V410h-14.1l-3.5-15H238.7z M204.2,410h-23.3l-3.5-15h23.3
	L204.2,410z"/>
</svg>
