<?xml version="1.0" standalone="no"?>
<!DOCTYPE svg PUBLIC "-//W3C//DTD SVG 20010904//EN"
 "http://www.w3.org/TR/2001/REC-SVG-20010904/DTD/svg10.dtd">
<svg version="1.0" xmlns="http://www.w3.org/2000/svg"
 width="842.000000pt" height="842.000000pt" viewBox="0 0 842.000000 842.000000"
 preserveAspectRatio="xMidYMid meet">
<metadata>
Created by potrace 1.11, written by Peter Selinger 2001-2013
</metadata>
<g transform="translate(0.000000,842.000000) scale(0.100000,-0.100000)"
fill="#000000" stroke="none">
<path d="M3277 6204 c-26 -7 -50 -12 -52 -13 -3 -1 -6 -1 -7 -2 -2 0 -12 -2
-23 -4 -16 -4 -232 -54 -295 -69 -56 -14 -297 -69 -318 -72 -14 -3 -30 -8 -35
-11 -8 -5 -5 -53 7 -100 3 -13 8 -31 10 -40 2 -10 12 -49 21 -88 9 -38 18 -79
21 -90 8 -40 27 -121 40 -167 7 -27 11 -48 8 -48 -3 0 0 -8 5 -17 5 -10 12
-34 15 -53 3 -19 17 -84 31 -144 15 -60 29 -117 31 -128 2 -10 6 -28 9 -40 3
-13 7 -34 9 -48 3 -14 9 -37 15 -52 9 -24 8 -28 -7 -29 -9 0 -116 -2 -237 -2
l-220 -2 -2 -207 -2 -208 284 0 c235 0 284 -2 288 -14 3 -8 17 -65 32 -128 14
-62 30 -129 35 -148 9 -33 54 -227 74 -320 3 -11 0 -20 -7 -21 -22 -2 -92 -1
-102 1 -5 1 -14 1 -20 0 -13 -2 -87 -2 -100 0 -5 1 -13 2 -17 0 -19 -4 -99 -2
-105 3 -3 4 -13 2 -23 -3 -10 -5 -19 -7 -22 -5 -5 5 -58 6 -126 3 -30 -2 -56
0 -59 5 -2 4 -9 4 -16 0 -6 -3 -34 -7 -61 -7 l-51 -1 -5 -178 c-3 -99 -2 -181
1 -183 4 -2 4 -14 2 -28 l-5 -24 406 2 406 1 10 -25 c5 -14 11 -36 14 -50 2
-14 7 -32 10 -40 3 -8 7 -28 10 -45 3 -16 14 -66 24 -110 11 -44 41 -170 66
-280 26 -110 49 -204 50 -210 5 -19 20 -90 21 -100 1 -5 4 -17 7 -25 4 -8 20
-78 37 -155 17 -77 33 -149 36 -160 4 -19 43 -177 44 -182 1 -2 1 -5 1 -7 0
-3 15 0 33 5 17 6 43 12 56 15 12 3 53 12 90 20 36 9 73 17 81 19 8 2 35 8 60
15 25 7 56 14 70 16 14 2 52 10 85 19 33 9 71 19 85 21 44 9 245 57 249 60 1
1 -5 33 -14 70 -9 37 -19 77 -21 88 -2 12 -11 49 -19 83 -8 35 -22 93 -31 130
-8 38 -18 79 -21 93 -3 14 -7 31 -9 37 -1 7 -14 63 -29 125 -30 124 -34 141
-41 178 -3 14 -11 50 -19 80 -8 30 -16 66 -19 80 -12 56 -24 108 -39 167 -14
58 -14 63 1 64 72 3 954 0 958 -3 4 -5 40 -146 47 -188 3 -14 10 -43 15 -65
16 -58 66 -268 67 -280 1 -5 4 -21 8 -35 17 -69 57 -239 62 -269 3 -19 8 -37
10 -41 2 -4 14 -49 25 -101 12 -52 23 -101 25 -109 1 -8 9 -35 15 -60 7 -25
14 -54 16 -65 2 -18 18 -85 28 -125 3 -8 5 -21 5 -28 1 -13 24 -12 89 3 12 3
30 7 40 9 9 2 59 14 110 26 51 12 99 23 105 24 7 2 30 7 52 13 34 9 177 42
250 58 11 2 44 11 73 19 62 17 58 16 78 16 14 0 15 7 9 43 -4 23 -8 47 -9 52
-2 6 -6 24 -10 40 -4 17 -11 46 -17 65 -5 19 -11 46 -13 60 -3 14 -14 66 -27
115 -12 50 -23 97 -24 105 -1 8 -5 26 -9 40 -3 14 -22 93 -41 175 -51 219 -54
231 -65 278 -6 23 -13 53 -16 67 -3 14 -10 43 -15 65 -6 22 -11 53 -12 69 l-2
30 243 0 242 -1 0 208 0 208 -27 0 c-29 1 -45 1 -88 1 -14 0 -32 0 -40 0 -8 0
-26 0 -40 0 -14 0 -32 0 -40 0 -8 0 -26 0 -40 0 -14 0 -32 0 -40 0 -8 0 -26 0
-40 0 -14 0 -32 0 -40 0 -36 0 -71 1 -85 1 -8 0 -20 0 -25 -1 -6 -1 -26 -2
-46 -1 -38 1 -47 11 -55 61 -2 14 -6 34 -8 45 -15 59 -36 145 -40 166 -3 13
-10 42 -15 64 -8 38 -41 178 -60 258 l-9 37 369 0 369 0 0 209 0 209 -419 -2
-420 -1 -10 50 c-5 28 -12 61 -15 75 -3 14 -8 34 -10 45 -3 11 -9 35 -15 53
-5 17 -8 32 -6 32 3 0 0 11 -5 26 -6 14 -12 39 -15 57 -3 18 -12 59 -21 92 -8
33 -17 71 -20 85 -3 14 -10 43 -15 65 -5 22 -12 51 -15 65 -3 14 -16 70 -29
125 -43 181 -73 309 -91 387 -16 68 -20 77 -38 73 -12 -2 -21 -4 -21 -5 0 -1
-7 -3 -15 -5 -8 -1 -51 -11 -95 -21 -44 -10 -82 -19 -85 -19 -3 -1 -21 -5 -40
-10 -19 -4 -42 -9 -50 -10 -8 -1 -22 -5 -30 -8 -8 -3 -38 -11 -66 -17 -69 -15
-72 -16 -122 -25 -23 -4 -45 -12 -48 -16 -3 -5 -9 -7 -12 -5 -4 2 -50 -6 -102
-19 l-95 -23 2 -33 c0 -19 4 -45 8 -59 3 -14 8 -36 11 -49 3 -14 19 -81 36
-150 17 -69 32 -135 34 -146 1 -11 12 -56 23 -101 11 -44 23 -91 25 -105 2
-13 5 -25 7 -26 2 -3 3 -7 12 -53 8 -38 17 -79 21 -95 1 -5 10 -46 20 -90 10
-44 22 -89 26 -101 5 -11 5 -25 2 -30 -5 -7 -915 -11 -964 -5 -7 1 -21 46 -32
101 -3 14 -7 34 -10 45 -2 11 -7 31 -10 45 -3 14 -15 66 -27 115 -12 50 -23
97 -24 105 -2 8 -4 15 -5 15 -1 0 -3 9 -4 20 -2 11 -13 59 -24 107 -12 48 -24
98 -26 110 -6 31 -32 141 -62 267 -26 105 -30 123 -40 175 -2 16 -7 32 -9 36
-4 7 -16 57 -17 76 -2 14 -12 13 -71 -2z m1441 -1686 c7 -29 15 -64 18 -78 3
-14 10 -43 16 -65 5 -22 12 -51 15 -65 2 -14 8 -41 13 -60 5 -19 11 -46 14
-60 3 -14 15 -65 27 -115 11 -49 23 -100 26 -112 5 -22 -11 -31 -42 -23 -5 1
-17 2 -25 1 -8 0 -55 -1 -105 -1 -49 1 -97 0 -105 0 -8 0 -28 0 -45 1 -16 1
-40 1 -52 1 -21 -1 -52 -2 -88 -2 -8 0 -26 0 -40 0 -14 0 -32 0 -40 0 -8 0
-26 0 -40 0 -47 0 -60 0 -138 0 -42 -1 -82 2 -87 5 -6 3 -10 2 -10 -3 0 -5
-17 -6 -40 -2 -22 4 -40 4 -40 0 0 -4 -17 -4 -37 -1 l-37 6 -21 90 c-36 147
-87 364 -87 370 0 2 -7 30 -15 62 -7 32 -16 68 -19 81 l-4 22 487 0 488 0 13
-52z"/>
</g>
</svg>
