<?xml version="1.0" encoding="utf-8"?>
<!-- Generator: Adobe Illustrator 19.0.0, SVG Export Plug-In . SVG Version: 6.00 Build 0)  -->
<svg version="1.1" id="Layer_1" xmlns="http://www.w3.org/2000/svg" xmlns:xlink="http://www.w3.org/1999/xlink" x="0px" y="0px"
	 viewBox="0 0 141.7 141.7" style="enable-background:new 0 0 141.7 141.7;" xml:space="preserve">
<style type="text/css">
	.st0{fill:#283C8C;}
</style>
<path class="st0" d="M72.4,5.9L72.4,5.9C72.4,5.9,72.4,5.9,72.4,5.9C72.4,5.9,72.4,5.9,72.4,5.9L72.4,5.9C50,6.4,32,24.6,32,47.1
	c0,2.7,0.2,5.4,0.7,8c1.1,4.8,3.8,9.3,5.9,13.6c1.9,3.9,3.9,7.9,5.8,11.8C49,90,53.6,99.5,58.3,109c3.8,7.7,7.5,15.4,11.3,23.1
	c0.3,0.6,2.1,4.2,2.8,5.7c0,0,0-0.1,0-0.1c0,0,0,0.1,0,0.1c0.7-1.5,2.5-5,2.8-5.7c3.8-7.7,7.5-15.4,11.3-23.1
	c4.6-9.5,9.2-18.9,13.9-28.4c1.9-3.9,3.9-7.9,5.8-11.8c2.1-4.4,4.8-8.9,5.9-13.6c0.6-2.6,0.7-5.4,0.7-8
	C112.8,24.6,94.8,6.4,72.4,5.9z M72.4,62.8c-7.9,0-14.3-6.4-14.3-14.3s6.4-14.3,14.3-14.3c7.9,0,14.3,6.4,14.3,14.3
	S80.3,62.8,72.4,62.8z"/>
</svg>
